<svg width="18548" height="12977" viewBox="0 0 18548 12977" fill="none" xmlns="http://www.w3.org/2000/svg">
<path d="M1305.74 8405.58C1911.09 8329.71 2467.76 8350.17 2941.06 8465.69C3639.85 8641.29 3669.32 8922.47 4301.12 8921.49C4915.14 8920.34 5696.31 8653.51 6296.33 8291.61C7115.04 7797.71 7074.57 7441.5 8036.34 6430.56C8602.01 5836.31 9662.61 4721.28 11089.3 4163.22C11810 3881.31 12564.6 3764.88 13266 3656.54C14125.7 3523.76 14268 3585.9 14716.6 3447.75C15249.3 3283.76 16040.7 2890.77 17065.2 1836.5" stroke="#FF1E1E" stroke-width="5" stroke-miterlimit="10"/>
<path d="M1304.41 8474.93C1848.99 8402.71 2356.15 8407.48 2800.55 8489C2843.12 8497.12 2885.85 8505.91 2929.01 8515.24C3630.74 8674.49 3666.04 8939.9 4289.18 8935.88C4560.9 8934.54 4858.2 8888.39 5163.79 8800.1C5382.65 8736.74 5603.02 8654.13 5819.23 8554.37C5980.9 8479.72 6138.78 8394.62 6289.88 8300.67C6458.59 8197.43 6614.67 8080.75 6751.8 7955.34C7004.05 7724.13 7163.99 7490.64 7419.88 7173.62C7612.66 6934.95 7828.05 6699.64 8063.64 6470.34C8188.21 6348.05 8333.17 6202.91 8502.99 6044.92C8957.23 5621.66 9547.66 5119.6 10300.3 4707.26C10555.5 4566.6 10819 4441.95 11085.9 4335.7C11126.7 4319.37 11167.5 4303.83 11207.8 4288.87C11606.5 4140.42 11995.4 4037.81 12396.9 3951.57C12697.1 3886.28 12985.2 3842.45 13270.1 3795.09C13389.5 3775.81 13496.3 3759.06 13593.1 3744.88C14177.5 3659.72 14339.2 3680.14 14722.3 3552.99C15013.5 3456.36 15380.8 3291.07 15825.7 2989.91C16190.6 2743.11 16611.2 2401.62 17087.5 1932.35" stroke="#FF1E1E" stroke-width="5" stroke-miterlimit="10"/>
<path d="M1304.26 8544.13C1842.25 8468.56 2344.98 8467.68 2787.97 8541.55C2830.44 8548.79 2873.04 8556.6 2915.77 8564.96C3621.86 8707.41 3663.46 8956.47 4277.5 8950.16C4550.13 8949.95 4848.66 8904.87 5155.9 8817.51C5376.05 8753.8 5597.75 8670.12 5814.92 8568.75C5976.57 8492.86 6133.87 8405.83 6283.38 8309.57C6450.48 8203.49 6605.25 8085.43 6742.36 7959.46C7004.94 7720.06 7176.57 7486.81 7431.99 7183.61C7627.72 6952.66 7848.33 6726.36 8090.46 6508.12C8216.66 6392.85 8359.72 6256.63 8529.88 6109.34C8983.29 5716.78 9543.04 5268.35 10291.6 4875.6C10550 4739.03 10814.6 4615.91 11082.1 4507.81C11123.5 4491.24 11164.5 4475.24 11205 4459.99C11609.9 4306.8 11987.3 4199.62 12394.6 4101.15C12701.4 4027.12 12986.7 3983.05 13273.5 3933.71C13392.6 3913.1 13500.3 3894.7 13599 3878.38C14182.7 3782.47 14347.9 3794.04 14727.5 3658.14C15016.7 3554.61 15379.7 3384.19 15826.9 3080.77C16192.1 2832.73 16619.2 2491.37 17109.8 2028.54" stroke="#FF1E1E" stroke-width="5" stroke-miterlimit="10"/>
<path d="M1301.1 8613.54C1833.69 8534.31 2333.06 8527.78 2775.43 8594.27C2817.65 8600.89 2860.23 8607.72 2902.65 8615.17C3613.61 8740.42 3660.2 8974.07 4265.27 8964.68C4551.78 8960.16 4827.31 8926.78 5147.21 8835.45C5368.86 8771.36 5592.07 8686.53 5810.37 8583.42C5972.06 8506.22 6128.78 8417.2 6276.6 8318.59C6442.18 8209.66 6595.85 8090.13 6733.19 7963.45C7005.56 7716.12 7188.66 7483.57 7443.93 7194.22C7642.82 6970.84 7868.9 6753.7 8117.59 6547.24C8246.81 6438.38 8386.85 6311.56 8557.07 6175.09C9011.77 5810.48 9538.6 5417.94 10283.1 5044.44C10544.7 4912.02 10810.7 4790.35 11079 4680.35C11120.7 4663.49 11163 4646.72 11202.3 4631.78C11599.4 4480.16 11997.6 4352.95 12391.7 4251.92C12704.9 4168.99 12987.9 4125.22 13277.6 4072.6C13396.5 4050.98 13504.7 4030.88 13605.6 4012.31C14188.4 3905.6 14357.2 3907.86 14733 3763.84C15020.7 3653.63 15380.2 3477.21 15828.8 3171.89C16194.8 2923.49 16627.1 2580.95 17131.9 2123.73" stroke="#FF1E1E" stroke-width="5" stroke-miterlimit="10"/>
<path d="M1299.44 8682.85C1825.95 8600.33 2321.36 8588.13 2762.84 8646.82C2804.91 8652.77 2847.54 8658.48 2889.48 8665.22C3604.09 8774.54 3657.26 8990.43 4253.35 8979.25C4545.97 8973.36 4813.39 8945.89 5139.08 8853.15C5362.03 8788.81 5586.6 8702.84 5805.78 8597.92C5967.98 8519.42 6124.54 8428.28 6270.93 8327.13C6434.67 8215.79 6587.15 8095.2 6724.81 7968.2C7006.92 7712.77 7203.01 7480.82 7456.67 7204.3C7635.67 7009.4 7854.99 6811.65 8145.51 6585.83C8277.39 6483.17 8415.76 6364.98 8585.26 6239.86C9043.86 5901.31 9535.24 5566.88 10274.2 5213.23C10538.7 5084.99 10806 4964.73 11075 4852.91C11117.2 4835.64 11158.9 4818.95 11199 4803.32C11595.9 4647.55 11994.5 4513.08 12390.6 4401.35C12710.9 4309.28 12989.8 4266.7 13281.8 4210.53C13399 4188.51 13509.8 4166.37 13612.6 4145.32C14194.3 4028.79 14366.6 4020.89 14739.3 3868.34C15025.3 3751.28 15380.8 3569.44 15831.1 3262.28C16196.9 3012.7 16635.3 2670.25 17154 2219.09" stroke="#FF1E1E" stroke-width="5" stroke-miterlimit="10"/>
<path d="M1298.07 8752.04C1818.4 8666.37 2309.74 8648.55 2750.27 8699.37C2792.15 8704.49 2834.54 8709.19 2876.25 8714.93C3594.99 8806.45 3654.25 9007.74 4240.81 8993.72C4539.57 8986.63 4798.89 8965.08 5130.09 8871.04C5354.53 8806.33 5580.64 8719.14 5800.88 8612.38C5962.88 8532.82 6118.55 8439.93 6262.77 8336.75C6424.77 8222.78 6576.14 8100.79 6714.02 7973.09C7006.22 7709.76 7215.7 7478.78 7467.19 7215.35C7653.08 7021.13 7880.47 6833.1 8171.18 6625.22C8306.27 6528.51 8443.06 6419.29 8610.8 6305.05C9076.97 5989.87 9530.06 5715.87 10264.9 5381.14C10520.2 5264.79 10802.5 5135.4 11070.8 5024.64C11113.5 5006.96 11154.6 4990.34 11195.5 4974.01C11591.6 4814.36 11989.7 4672.93 12386.7 4550.85C12713.6 4449.89 12990.4 4407.66 13285.1 4348.82C13403.5 4325.2 13513.3 4301.46 13618.4 4278.49C14199.3 4152.95 14376.7 4138.22 14744 3974.39C15027.9 3847.82 15380.2 3662.94 15831.8 3353.54C16197.5 3102.35 16642.4 2760.19 17175.1 2315.26" stroke="#FF1E1E" stroke-width="5" stroke-miterlimit="10"/>
<path d="M1296.37 8821.18C1810.64 8732.45 2298 8709.04 2737.69 8751.92C2779.37 8756.2 2821.84 8759.96 2863.05 8764.81C3586.46 8839.59 3651.39 9024.43 4228.57 9008.24C4532.57 8999.97 4784.37 8984.28 5121.68 8888.87C5347.15 8823.78 5574.3 8735.59 5795.18 8627.37C5957.45 8546.44 6112.67 8451.54 6255.16 8346.14C6415 8229.53 6565.18 8106.24 6703.53 7978.02C7005.48 7706.59 7229.29 7475.44 7477.39 7226.35C7670.29 7032.02 7906.26 6854.6 8196.56 6664.74C8335.43 6573.73 8489.79 6488.85 8636.4 6371.87C9145.46 6136.01 9520.28 5839.83 10254.5 5551.33C10513.9 5449.6 10798.7 5309.93 11065.5 5198.14C11108.8 5180.22 11150.6 5162.91 11190.9 5146.65C11622.2 4972.27 11953.3 4843.69 12382.8 4701.16C12716.1 4591.12 12990 4549.77 13287.3 4487.59C13404.1 4463.58 13515.9 4437.7 13623.2 4412.47C14202 4276.63 14382.4 4247.33 14748.1 4078.9C15031.2 3948.04 15379.2 3754.94 15832.3 3443.98C16198.5 3192.54 16648.7 2849.38 17196 2410.43" stroke="#FF1E1E" stroke-width="5" stroke-miterlimit="10"/>
<path d="M1294.72 8890.48C1802.87 8798.72 2286.2 8769.6 2725.07 8804.31C2766.87 8807.8 2809.12 8810.55 2849.81 8814.52C3579.22 8871.61 3649.61 9040.46 4217.46 9022.28C4528.67 9012.15 4771.25 9002.86 5114.11 8906.32C5341.57 8840.78 5570.74 8751.09 5793.05 8640.61C5974.01 8551.69 6116.64 8453.16 6250.84 8353.9C6408.7 8234.69 6557.91 8109.98 6696.91 7981.09C7008.64 7701.72 7248.09 7470.74 7492.32 7235.3C7692.22 7042.14 7937.69 6874.01 8225.24 6702.63C8368.76 6617.14 8522.11 6545.02 8665.43 6436.27C9182.97 6236.99 9523.21 6015.82 10247.5 5718.94C10507.4 5612.59 10797.9 5481.99 11063.8 5370.07C11107.2 5351.19 11149.7 5333.97 11189.6 5317.5C11627.5 5137.64 11947.1 5003.98 12382.4 4851.34C12722 4732.53 12993.3 4691.76 13293.3 4626.42C13409.8 4601.4 13522.1 4573.82 13631.7 4546.34C14209.7 4400.87 14393.7 4361.59 14755.7 4184.25C15037.3 4046.7 15381.3 3848.18 15836 3535.21C16202.6 3283.65 16658.6 2939.4 17220.2 2506.56" stroke="#FF1E1E" stroke-width="5" stroke-miterlimit="10"/>
<path d="M1293.29 8959.51C1795.15 8864.98 2274.29 8830.15 2712.37 8856.36C2754.01 8859.19 2796.34 8860.98 2838.15 8863.18C3571.05 8903.67 3647.71 9056.01 4205.34 9036.02C4522.66 9024.52 4757.17 9021.31 5105.78 8923.19C5334.37 8857.53 5564.75 8766.89 5787.79 8654.86C5971.01 8563.84 6110.52 8463.74 6243.38 8362.66C6407.45 8237.89 6538.47 8118.31 6686.66 7985.74C7008.49 7698.48 7309.07 7479.13 7503.63 7245.82C7744.27 7068.75 7954.41 6839.33 8252.56 6741.29C8407.75 6690.26 8553.54 6601.39 8693.05 6501.29C9219.33 6338.29 9520.86 6165.23 10239.5 5887.21C10501.6 5785.72 10797.2 5654.07 11060.6 5542.11C11104.8 5522.87 11147 5504.48 11187.4 5488.56C11631.4 5303.45 11939.6 5164.1 12380.5 5001.13C12727.3 4872.72 12995.2 4833.07 13297.5 4764.68C13413.8 4738.66 13527 4709.44 13638.4 4679.64C14214.5 4525.33 14403.3 4474.18 14762 4289.09C15042.3 4144.41 15382.5 3940.34 15838.4 3625.59C16205.2 3372.79 16666 3029.06 17242.9 2601.85" stroke="#FF1E1E" stroke-width="5" stroke-miterlimit="10"/>
<path d="M1291.6 9028.65C1787.49 8931.47 2262.62 8891.19 2699.87 8909.25C2741.32 8911.24 2783.26 8911.36 2825.27 8913.11C3564.71 8935.67 3644.58 9072.81 4193.43 9050.58C4517.1 9037.42 4743.26 9040.43 5097.41 8941.17C5327.44 8875.05 5559.25 8783.23 5783.24 8669.52C5968.74 8576.42 6105.01 8474.23 6236.93 8371.73C6397.28 8246.73 6526 8125.21 6677.25 7990.02C7008.79 7694.48 7328.25 7477.39 7516.29 7255.57C7767.5 7081.81 7994.5 6853.86 8280.42 6779.55C8436.78 6738.85 8585.3 6657.8 8720.41 6566.42C9255.41 6439.7 9518.61 6314.97 10231.2 6055.59C10495.6 5958.79 10793.7 5827.51 11057.4 5714.14L11184.4 5658.84C11635.1 5468.08 11932.5 5323.3 12378.3 5149.91C12731.8 5012.32 12996.7 4973.83 13301.6 4902.11C13417.7 4875.09 13531.3 4844.16 13645 4811.94C14219 4649.11 14412.5 4586.37 14767.8 4393.2C15046.4 4241.51 15382.9 4031.89 15840.2 3715.42C16207.2 3461.66 16675.1 3117.2 17265.1 2696.41" stroke="#FF1E1E" stroke-width="5" stroke-miterlimit="10"/>
<path d="M1289.88 9097.62C1779.27 8998.22 2249.9 8952.49 2686.1 8961.95C2727.48 8962.31 2769.42 8962.43 2811.08 8962.68C3554.53 8968.23 3640.93 9088.74 4180.85 9064.89C4510.82 9049.9 4730.06 9058.68 5088.62 8958.61C5319.98 8892.34 5553.2 8799.42 5778.02 8683.93C5966.06 8588.62 6099.06 8485.46 6229.52 8380.65C6385.91 8254.44 6512.9 8132.02 6667.25 7994.37C7008.85 7690.78 7346.84 7475.73 7526.74 7266.28C7788.74 7095.54 8038.41 6966.58 8306 6818.6C8467.44 6768.15 8614.76 6714.85 8746.62 6631.86C9290.23 6542.22 9514.41 6465.55 10221.3 6224.07C10488.3 6132.98 10790.9 6002.5 11052.7 5886.44C11097.8 5866.84 11140.8 5848.09 11180.5 5830.79C11636.5 5628.36 11923.1 5484.43 12375 5300.47C12735.6 5153.57 12997 5116.2 13304.8 5041.19C13420.6 5013 13535.4 4980.46 13649.8 4946.09C14221.9 4774.74 14418.8 4700.57 14771.5 4498.96C15048.9 4340.29 15381.4 4125.26 15840.6 3806.65C16207.7 3552.1 16680.5 3207.71 17285.6 2792.49" stroke="#FF1E1E" stroke-width="5" stroke-miterlimit="10"/>
<path d="M1288.46 9166.64C1772.19 9064.6 2239.09 9013.1 2674.87 9013.73C2715.98 9014.21 2757.92 9013.05 2799.35 9012.29C3548.43 8999.95 3639.74 9104.71 4169.41 9078.88C4505.8 9062.57 4715.27 9077.99 5080.76 8976.19C5314.13 8909.45 5549.41 8815.02 5775.62 8697.3C5967.04 8599.41 6097.23 8494.72 6224.13 8389.07C6378.08 8261.53 6502.38 8138.07 6659.08 7997.38C7010.18 7685.97 7367.25 7472.73 7539.56 7275.41C7812.12 7107.98 8068.59 6989.85 8333.94 6855.9C8499.34 6813.29 8646.56 6770.14 8774.85 6695.51C9326.8 6641.77 9512.59 6614.55 10213.6 6391.1C10483 6305.19 10789.4 6173.98 11050.2 6057.28C11095.7 6037.44 11138.8 6018.68 11178.8 6001.26C11640.8 5793.26 11916.2 5643.35 12373.8 5449.4C12740.8 5293.43 12999.4 5257.1 13309.8 5178.76C13425.4 5149.73 13539.8 5115.36 13658.3 5078.67C14228.4 4899.14 14431 4812.39 14779.2 4603.19C15054.9 4437.51 15383.7 4217.09 15844.4 3896.59C16211.5 3641.25 16691.5 3295.96 17309.8 2887.33" stroke="#FF1E1E" stroke-width="5" stroke-miterlimit="10"/>
<path d="M1286.73 9235.61C1764.49 9131.33 2227.28 9074.3 2662.25 9066.11C2703.64 9066.48 2745.16 9063.47 2786.39 9061.88C3541.35 9031.35 3637.57 9120.36 4157.42 9093.11C4500.12 9074.97 4701.24 9096.61 5072.56 8993.55C5306.81 8926.66 5542.99 8831.33 5769.61 8712.24C5960.76 8613.18 6091.19 8505.62 6216.72 8398C6365.72 8270.22 6488.44 8145.24 6649.28 8002.57C7010.4 7682.93 7386.03 7471.91 7551 7286.42C7834.35 7122.02 8096.28 7014.2 8360.63 6895.76C8529.67 6860.94 8677.12 6827.99 8801.57 6761.84C9362.28 6744.55 9509.26 6766.23 10204.6 6560.68C10476.5 6480.13 10786.1 6345.68 11045.9 6231.09C11092 6211 11135.3 6192.13 11175.3 6174.7C11643.9 5960.88 11909.7 5812.8 12371.1 5601.34C12743.3 5430.79 13000.4 5400.85 13313.5 5319.67C13429.9 5288.98 13547.1 5253.92 13664.4 5214.63C14232.7 5027.08 14439.8 4928.07 14784.6 4710.79C15059 4537.98 15383.8 4312.31 15845.8 3989.91C16214.5 3733.17 16699.1 3387.91 17331.6 2985.39" stroke="#FF1E1E" stroke-width="5" stroke-miterlimit="10"/>
<path d="M1276.7 9268.85C1748.64 9162.68 2207.35 9100.36 2641.49 9083.43C2682.49 9082.12 2724.28 9079 2765.56 9076.28C3526.11 9027.68 3627.8 9100.71 4137.25 9072.11C4486.33 9052.47 4679.1 9080.32 5055.93 8975.97C5291.63 8908.79 5529.31 8812.33 5756.84 8691.5C5951.6 8589.58 6078.44 8481.02 6202.6 8371.42C6346.65 8242.12 6466.72 8116.27 6631.53 7970.95C7002.55 7643.87 7397.11 7433.98 7554.53 7260.8C7848.4 7099.53 8116.17 7002.41 8379.31 6898.48C8552.03 6871.62 8699.39 6848.82 8820.31 6791.19C9389.75 6810.19 9498.5 6881.98 10187.2 6692.4C10461.8 6617.09 10775.1 6481.56 11034.1 6366.05L11163.7 6307.92C11640.4 6094.8 11891.5 5928.44 12360.1 5713.34C12740.8 5538.38 12993 5504.83 13308.6 5419.82C13426 5387.65 13544.2 5350.88 13662.3 5309.69C14227.4 5114.73 14440.3 5002.53 14781.4 4777.46C15054.4 4597.51 15375.6 4366.46 15839 4042.17C16207.5 3784.76 16698.4 3438.96 17345.2 3042.55" stroke="#FF1E1E" stroke-width="5" stroke-miterlimit="10"/>
<path d="M1262.47 9286.63C1728.29 9178.08 2182.7 9109.84 2615.79 9083.41C2656.9 9081.31 2698.47 9077.19 2739.52 9073.47C3507.13 9006.53 3612.77 9064.97 4113.08 9033.9C4468.75 9012.32 4652.93 9046.67 5035.59 8941.07C5272.76 8873.3 5511.88 8775.4 5740.16 8652.61C5936.88 8548.55 6061.66 8439.05 6183.17 8327.29C6324.25 8198.36 6442.95 8070.54 6609.43 7923.2C6990.4 7587.57 7403.59 7380.22 7553.71 7219.05C7858.38 7060.8 8135.67 6944.09 8393.94 6885.12C8579.03 6842.94 8718.09 6854.28 8833.95 6803.82C9411.84 6859.23 9482.08 6981.26 10165 6809.07C10441.9 6739.58 10759.5 6602.57 11016.8 6486.66C11064 6466.09 11107.6 6445.64 11147.2 6427.67C11630.5 6208.73 11869.9 6036.97 12344.3 5811.25C12731.4 5627.05 12980.8 5594.72 13298.9 5505.87C13417.2 5472.5 13536.3 5434.07 13655.2 5390.78C14218.1 5188.26 14435.7 5063.18 14773.5 4830.2C15044.8 4643.07 15362.2 4406.64 15827.1 4080.62C16195.5 3822.55 16692.7 3476.21 17353.5 3084.9" stroke="#FF1E1E" stroke-width="5" stroke-miterlimit="10"/>
<path d="M1249.55 9303.47C1709.56 9192.98 2159.82 9119.14 2591.9 9083.32C2633.11 9080.27 2674.72 9075.03 2715.29 9070.59C3488.3 8984.76 3598.51 9027.23 4088.91 8995.7C4450.61 8972.41 4626.48 9013.13 5016.32 8905.51C5254.91 8838.18 5495.7 8739.56 5725.06 8615.24C5924.28 8508.8 6046.42 8397.14 6165.92 8284.6C6303.48 8155 6419.97 8025.57 6590.94 7875.17C6981.41 7531.72 7413.44 7326.47 7556.49 7177.01C7871.28 7021.53 8157.59 6917.26 8411.35 6871.83C8601.98 6837.73 8739.1 6857.81 8852.69 6817.36C9439.07 6909.33 9470.76 7081.44 10148 6925.86C10427.5 6862.06 10748.2 6723.89 11005.1 6607.77L11136.2 6547.74C11625.9 6323.27 11853.9 6145.82 12334.1 5909.82C12728.1 5715.98 12974.5 5686.1 13295.3 5593.29C13414.6 5558.87 13534.6 5518.93 13654.2 5473.75C14214.9 5263.96 14437.3 5125.71 14771.8 4884.82C15041.5 4690.68 15354.9 4448.99 15821.5 4120.95C16314.2 3768.98 16831 3437.59 17365.6 3130.72" stroke="#FF1E1E" stroke-width="5" stroke-miterlimit="10"/>
<path d="M1234.21 9313.83C1688.6 9201.76 2134.76 9122.54 2565.76 9077.43C2607.04 9073.42 2648.46 9067.34 2688.8 9061.9C3468.17 8957.3 3582.92 8985.11 4063.4 8951.65C4431.95 8926.29 4598.96 8973.63 4993.24 8865.36C5233.32 8797.55 5475.6 8697.41 5705.6 8570.94C5906.78 8462.37 6026.71 8349.09 6144.27 8234.82C6278.03 8104.67 6392.35 7973.79 6565.87 7821.18C6966.4 7469.67 7416.16 7267 7552.69 7129.02C7878.44 6977.23 8172.41 6884.88 8422.7 6852.18C8618.67 6826.6 8754.4 6856.49 8864.1 6824.34C9459.21 6952.6 9452.12 7175.06 10123.5 7036.21C10405.5 6978.11 10730.1 6838.25 10985.6 6721.27C11033.4 6699.34 11077.8 6678.52 11117.3 6660.22C11614.4 6429.56 11830 6247.24 12315.6 6001.03C12716 5797.96 12959.4 5768.62 13282.9 5673.15C13403.2 5637.27 13524 5595.49 13644.3 5548.15C14203 5331.12 14429.9 5179.5 14761 4930.86C15029.1 4729.54 15338.9 4482.64 15806.8 4152.54C16304 3797.88 16829.3 3467.74 17374.2 3167.46" stroke="#FF1E1E" stroke-width="5" stroke-miterlimit="10"/>
<path d="M1215.89 9311.33C1664.71 9197.57 2106.77 9112.83 2536.5 9058.17C2577.6 9053.33 2619.1 9046.29 2659.25 9040.02C3445.12 8916.04 3565.3 8927.69 4034.77 8894.24C4409.91 8866.94 4568.37 8920.94 4968.4 8811.09C5209.86 8743.09 5453.58 8641.84 5684.34 8513.64C5887.71 8402.64 6005.47 8287.91 6120.82 8172.03C6251.18 8041.71 6363.21 7908.89 6539.82 7753.82C6950.14 7394.38 7419.22 7193.22 7547.93 7067.66C7884.19 6919.01 8185.46 6839.66 8433.12 6819.33C8633.68 6802.96 8768.69 6841.62 8874.83 6817.83C9478.42 6982.67 9432.22 7255.44 10098.2 7132.91C10382.3 7080.91 10711.1 6939.57 10965.5 6821.78C11013.5 6799.56 11058.2 6778.46 11097.7 6759.99C11600.6 6524.05 11804.7 6335.86 12295.8 6079.49C12702.9 5866.9 12943.6 5838.94 13269.2 5740.37C13390.5 5703.05 13512.3 5659.56 13633.3 5610.29C14190.1 5386.21 14421.3 5221.17 14749 4964.78C15015.5 4756.78 15321.8 4503.88 15791.1 4172.05C16291.9 3814.46 16824.9 3485.34 17378.9 3191.71" stroke="#FF1E1E" stroke-width="5" stroke-miterlimit="10"/>
<path d="M1197.85 9308.71C1641.15 9193.58 2079.04 9103.41 2507.3 9039.08C2548.48 9033.28 2589.71 9025.07 2629.66 9017.97C3422.45 8874.98 3544.24 8872.5 4006.15 8836.83C4387.56 8807.53 4537.75 8868.08 4943.33 8757.09C5186.27 8689 5431.58 8586.49 5663.09 8456.33C5868.61 8342.74 5984.28 8226.9 6097.66 8109.12C6224.38 7977.62 6334.08 7843.98 6513.79 7686.46C6934.28 7319.45 7422.29 7119.43 7543.14 7006.12C7850.35 6874.74 8162.37 6798.58 8443.23 6786.42C8648.14 6779.56 8782.95 6826.58 8885.28 6811.44C9497.61 7012.56 9412.06 7335.93 10072.9 7229.6C10359.1 7183.88 10691.9 7040.38 10945.1 6922.42C10994 6899.66 11038.6 6878.39 11078.2 6859.47C11587.1 6617.62 11781 6424.71 12277.5 6157.35C12690.7 5935.65 12929.2 5908.65 13257.3 5806.75C13371.5 5771.21 13489.2 5722.15 13623.7 5671.66C14181.4 5462.41 14414.2 5262.1 14738.7 4997.8C15003.4 4782.11 15306.1 4524.51 15776.8 4190.79C16281.6 3830.04 16822.7 3501.62 17385.7 3214.31" stroke="#FF1E1E" stroke-width="5" stroke-miterlimit="10"/>
<path d="M1179.52 9306.21C1617.52 9189.71 2051.37 9094.03 2478.05 9019.82C2519.27 9012.9 2560.34 9004.03 2600.34 8995.8C3398.7 8831.99 3526.78 8815.75 3977.53 8779.42C4365.8 8748.06 4506.01 8815.71 4918.53 8702.99C5163.33 8634.57 5410.58 8530.66 5643.22 8398.42C5850.61 8282.35 5964.15 8165.24 6075.6 8045.73C6197.96 7913.92 6306.04 7778.59 6488.86 7618.61C6919.26 7242.88 7426.38 7044.83 7539.48 6944.27C7856.68 6817.06 8174.89 6750.99 8453.85 6754.4C8662.22 6757.25 8797.43 6812.55 8895.92 6805.89C9516.97 7043.29 9391.81 7417.38 10047.6 7327.42C10336.1 7287.68 10672.8 7142.33 10925.4 7023.64C10974.6 7000.6 11019.7 6978.76 11059 6959.95C11574.5 6712.12 11756.5 6513.14 12259.1 6236.16C12679.2 6004.82 12913.7 5980.14 13245.7 5873.97C13369 5831.4 13492.2 5784.62 13614.9 5733.8C14171.3 5515.17 14407.7 5303.75 14729.1 5031.59C14991.8 4808.84 15291.2 4545.9 15762.2 4210.77C16270.7 3847.29 16819.6 3520.14 17390.7 3240.06" stroke="#FF1E1E" stroke-width="5" stroke-miterlimit="10"/>
<path d="M1161.2 9303.7C1594.13 9185.92 2024.06 9084.63 2449.04 9000.28C2490.07 8992.52 2530.99 8982.98 2570.72 8973.58C3375.66 8790.72 3508.14 8759.14 3950.18 8722.19C4343.69 8688.36 4475.39 8762.85 4893.42 8648.83C5139.33 8580.47 5387.81 8475.53 5620.85 8341.59C5830.4 8222.94 5942.08 8104.42 6051.04 7983.42C6170.76 7850.74 6275.8 7714.16 6462 7551.61C6901.9 7168.07 7428.77 6972.08 7533.46 6882.72C7861.46 6758.9 8186.52 6702.25 8464.04 6720.54C8675.42 6733.67 8811.22 6796.8 8906.14 6798.49C9535.68 7072.47 9371.13 7498.28 10022.2 7423.28C10312.7 7389.81 10653.2 7242.59 10904.6 7123.56C10954.2 7100.11 10999.6 7077.98 11038.9 7058.84C11561.2 6804.9 11731.3 6600.8 12239.7 6313.55C12666.5 6072.51 12898 6049.67 13232 5940.23C13356.3 5896.63 13480.5 5848.16 13603.7 5795.11C14158.9 5567.09 14398.8 5344.57 14716.8 5064.5C14978.2 4834.62 15274.2 4566.18 15746.7 4229.82C16259.4 3863.31 16816.2 3537.13 17395.4 3264.14" stroke="#FF1E1E" stroke-width="5" stroke-miterlimit="10"/>
<path d="M1143.43 9300.96C1636.21 9166.34 2080.41 9054.35 2420.1 8981.07C2461.49 8972.24 2502.14 8961.52 2541.47 8951.75C3352.98 8748.38 3489.84 8702.75 3920.4 8663.82C4321.73 8628.05 4445.99 8708.72 4868.74 8593.93C5116.06 8525.43 5366.02 8419.28 5599.71 8283.5C5811.37 8162.09 5921.28 8042.51 6027.99 7919.72C6143.9 7786.5 6246.77 7648.47 6436.08 7483.47C6886.03 7091.86 7431.99 6897.68 7528.97 6821.24C7867.6 6701.09 8198.98 6653.95 8474.54 6686.73C8688.64 6710.26 8836.02 6769.27 8916.98 6791.2C9668.14 6996.03 9350.4 7579.03 9996.99 7519.19C10289.3 7492.28 10634.5 7342.67 10884.6 7223.29C10934.7 7199.43 10980 7176.96 11019.5 7157.53C11547.6 6897.97 11706.1 6688.64 12220.7 6391.15C12654.1 6140.43 12882.6 6119.25 13219.5 6006.02C13344.9 5963.45 13470.2 5913.25 13593.7 5856.11C14143.7 5604.09 14391 5384.92 14706 5097.14C14965.5 4860.04 15257.5 4586.51 15732.4 4247.27C16249.4 3877.65 16814.5 3552.33 17401.5 3286.32" stroke="#FF1E1E" stroke-width="5" stroke-miterlimit="10"/>
<path d="M1124.83 9298.58C1622.4 9159.49 2062.15 9041.52 2390.58 8961.93C2432.02 8951.97 2472.47 8940.42 2511.61 8929.81C3330.23 8705.7 3470.96 8646.43 3891.63 8607.02C4299.77 8569.02 4415.29 8656.81 4843.55 8540.73C5092.47 8472.05 5344.12 8364.59 5578.62 8226.85C5792.07 8102.64 5899.93 7982.12 6004.39 7857.55C6117.06 7723.53 6216.37 7584.66 6409.89 7416.72C6869.59 7017.01 7433 6825.52 7524.29 6760.2C7913.79 6627.36 8241.6 6616.25 8484.81 6654.49C8701.15 6688.99 8848.92 6757.58 8927.27 6785.43C9668.99 7048.43 9329.41 7661.17 9971.32 7616.79C10265.4 7596.28 10615.3 7444.28 10864.1 7324.54C10914.7 7300.11 10960.5 7277.4 10999.7 7257.92C11534.3 6992.21 11681.4 6777.18 12201.7 6469.86C12641.5 6209.75 12867 6190.4 13206.4 6073.5C13332.9 6029.54 13459.1 5977.61 13583.1 5918.46C14131.8 5659.81 14383 5426.83 14694.9 5131.03C14952.4 4886.86 15241 4608 15718 4266.62C16087.6 4002.12 16632.9 3652.28 17407.3 3310.24" stroke="#FF1E1E" stroke-width="5" stroke-miterlimit="10"/>
<path d="M1106.5 9296.08C1608.67 9153.14 2043.79 9028.38 2361.36 8942.84C2402.8 8931.6 2443.06 8919.22 2482.2 8908.61C3306 8663.29 3452.31 8589.83 3863 8549.62C4273.69 8509.41 4384.66 8603.96 4818.7 8486.46C5069.03 8417.84 5322.25 8309.2 5557.35 8169.55C5772.56 8042.36 5878.99 7920.99 5981.25 7794.82C6090.44 7660.29 6188.37 7519.45 6383.87 7349.54C6853.83 6942.6 7435.85 6752.2 7519.56 6699.01C7919.85 6569.18 8251.2 6571.99 8495.22 6621.64C8713.25 6666.07 8860.49 6745.56 8937.56 6778.38C9666.54 7099.88 9307.88 7742.44 9945.88 7712.83C10241.6 7699.16 10595.8 7544.72 10843.8 7424.39C10894.6 7399.67 10940.7 7376.5 10981 7356.38C11521.6 7084.13 11657.6 6864.58 12183.5 6546.94C12629.9 6277.3 12852.8 6259.66 13194.7 6139.1C13322.3 6093.79 13449.4 6040.18 13573.9 5979.1C14121.4 5713.65 14375.9 5467.11 14685 5163.31C14940.5 4912.09 15225.8 4627.9 15704.6 4284.38C16074.7 4018.97 16625.7 3668.67 17414.4 3333.07" stroke="#FF1E1E" stroke-width="5" stroke-miterlimit="10"/>
<path d="M1088.46 9293.46C1594.89 9146.46 2025.44 9015.22 2332.2 8923.92C2373.68 8911.55 2413.79 8898.5 2452.5 8886.05C3282.3 8620.47 3433.67 8533.22 3834.42 8492.38C4256.05 8449.24 4353.76 8551.22 4793.64 8432.46C5045.48 8363.89 5300.39 8253.95 5536.1 8112.24C5753.03 7981.91 5858.04 7859.69 5958.12 7732.07C6063.75 7596.7 6159.28 7454.7 6358.12 7282.05C6837.39 6866.46 7437.19 6652.51 7514.8 6637.65C7915.38 6560.46 8260.45 6527.5 8505.65 6588.78C8725.21 6643.76 8873.43 6732.75 8948.48 6772.7C9662.21 7152.34 9286.48 7825.5 9920.84 7810.52C10218.1 7803.53 10576.9 7646.37 10823.6 7525.86C10875.3 7500.61 10921.2 7477.27 10960.7 7457.35C11508 7179.62 11631.9 6954.28 12163.7 6626.36C12616.5 6347.15 12836.5 6331.51 13181.1 6207.16C13309.8 6160.48 13437.8 6105.18 13562.9 6042.2C14109.1 5770.11 14367.1 5509.72 14672.9 5198.18C14926.9 4940.44 15208.6 4650.09 15689.1 4304.55C16059.3 4038.35 16616.6 3687.69 17419.4 3358.15" stroke="#FF1E1E" stroke-width="5" stroke-miterlimit="10"/>
<path d="M1070.13 9290.96C1581.29 9140.61 2006.7 9001.68 2302.86 8904.33C2344.36 8890.67 2384.31 8876.95 2423.11 8863.55C3258.51 8577.33 3415.29 8476.5 3805.75 8434.8C4235.68 8389.16 4322.26 8498.55 4768.68 8377.69C5022.04 8308.98 5278.58 8197.76 5514.97 8054.15C5733.02 7920.76 5836.96 7797.89 5934.64 7669.12C6036.94 7532.62 6130.1 7389.63 6332.08 7214.69C6821.41 6791.05 7440.53 6601.04 7510 6576.12C7933.69 6424.51 8269.39 6482.97 8514.92 6556.25C8681.8 6609.28 8830.24 6679.8 8957.78 6766.63C9655.69 7203.35 9263.72 7908.04 9895.56 7907.22C10194.1 7907.03 10557.8 7747.52 10803.5 7626.37C10855.4 7600.83 10901.8 7576.92 10940.4 7557.19C11493.6 7273.05 11606.2 7042.52 12144.2 6704.7C12603 6415.88 12820.8 6402.5 13167.9 6274.14C13297.7 6226.07 13426.6 6169.03 13552.1 6104.06C14097.4 5825.22 14358 5550.84 14661.4 5231.69C14913 4966.01 15191.5 4671.32 15674.3 4323.7C16044.9 4056.59 16607.6 3705.58 17424.9 3382.03" stroke="#FF1E1E" stroke-width="5" stroke-miterlimit="10"/>
<path d="M1051.81 9288.46C1566.48 9133.45 1987.6 8987.93 2273.62 8885.07C3220.03 8544.62 3379.37 8421.9 3777.14 8377.39C4212.5 8328.82 4292.51 8445.5 4743.72 8324.2C4998.61 8255.53 5256.84 8143.07 5493.87 7997.51C5942.24 7717.66 5904.55 7494.66 6306.05 7147.33C6805.12 6715.58 7443.73 6531.79 7505.24 6514.75C8324.75 6286.57 8815.64 6648.51 8969.34 6759.75C9650.54 7252.3 9242.64 7989.85 9870.01 8004.04C10234.1 8012.24 10699.5 7771.5 10921.2 7656.55C11480.8 7366.88 11582 7130.83 12125.6 6782.67C12738.1 6390.16 12917.1 6493.14 13542.5 6165.59C14540.1 5642.33 14596.3 5110.89 15658.6 4343.04C16029.3 4075.14 16598.1 3723.72 17429.6 3406.27" stroke="#FF1E1E" stroke-width="5" stroke-miterlimit="10"/>
<path d="M1071.66 9302.8C1577.44 9151.67 1992.31 9012.18 2278.56 8910.32C3201.1 8584.31 3367.53 8461.81 3763.11 8418.44C4190.7 8371.97 4274.78 8482.45 4715.28 8366.38C4964.97 8299.74 5218.21 8191.6 5452.57 8051.54C5897.5 7785.87 5866.05 7566.04 6262.28 7227.62C6751.39 6808.3 7369.6 6624.94 7440.65 6601.54C8105.19 6381.82 8552.94 6610.66 8777.05 6739.24C8822.9 6765.42 8857.39 6790.12 8884.55 6806.98C9569.93 7255.6 9184.93 7961.3 9800.58 7964.58C10168.1 7966.18 10636.8 7721.4 10868.2 7603.17C11080.3 7495.16 11280 7365.1 11456.3 7220.18C11637.1 7076.87 11803.8 6931.48 12092.8 6757.25C12181.4 6703.96 12261.3 6661.04 12333.2 6622.75C12768.8 6390.58 12962.3 6410.95 13484.6 6120.39C13686.8 6008.28 13876.4 5878.52 14045.3 5736.64C14504.2 5352.94 14745.6 4916.83 15465 4361.87C15507.2 4329.28 15551.5 4296.13 15598 4262.43C15971.7 3990.45 16548.3 3630.64 17391.7 3305.08" stroke="#FF1E1E" stroke-width="5" stroke-miterlimit="10"/>
<path d="M1091.51 9317.14C1587.29 9170.36 1996.67 9034.92 2283.74 8935.27C3181.81 8623.78 3354.58 8502.21 3749.12 8459.65C4168.87 8413.65 4257.4 8520.91 4685.68 8408.87C4930.4 8344.29 5178.88 8240.48 5410.75 8105.97C5851.22 7854.02 5827.75 7638.25 6218.19 7307.87C6697.89 6902.03 7295.54 6705.19 7375.5 6688.57C8006.77 6556.15 8464.69 6678.52 8691.32 6792.94C8737.42 6816.26 8771 6839.69 8797.5 6855C9486.42 7260.89 9125.98 7932.72 9729.49 7925.85C10098.6 7921.39 10572.1 7672.15 10813.1 7550.47C11027.1 7442.54 11230.3 7314.51 11413.9 7172.07C11599.1 7033.1 11770.6 6895.36 12058.3 6732.72C12147.8 6681.98 12229.1 6642.16 12301 6603.87C12735.2 6372.3 12916.5 6375.9 13424.7 6075.86C13623 5958.28 13808.1 5825.3 13973.3 5681.79C14413.5 5306.2 14668 4852.79 15401.3 4283.71C15444.1 4250.72 15488.9 4216.88 15535.7 4182.53C15912.2 3906.6 16496.6 3538.41 17352.2 3204.44" stroke="#FF1E1E" stroke-width="5" stroke-miterlimit="10"/>
<path d="M1111.36 9331.48C1597.1 9188.89 2000.91 9058.45 2288.29 8961.43C3162.05 8663.84 3341.82 8543.44 3734.69 8501.61C4146.48 8456.87 4239.42 8559.45 4657.62 8451.43C4897.2 8388.72 5140.62 8289 5369.41 8159.83C5803.67 7921.98 5789.57 7709.68 6174.39 7388C6644.51 6994.96 7220.33 6792.37 7310.83 6775.02C7814.93 6682.12 8267.59 6707 8605.78 6846.19C8652.13 6866.64 8685.09 6888.69 8710.68 6902.74C9402.28 7264.8 9067.39 7904.36 9657.92 7887.7C10029.9 7876.87 10507.2 7623.18 10757.9 7498.4C10973.7 7390.26 11180.5 7264.2 11371 7124.53C11561.2 6989.67 11737.8 6859.62 12023.4 6708.6C12114.4 6660.5 12196.7 6623.73 12268.6 6585.44C12702.2 6353.95 12870.1 6341.88 13363.8 6032.16C13557.8 5909.12 13738.4 5773.01 13900.2 5627.93C14321.5 5259.27 14590.9 4789.64 15336.3 4206.49C15379.3 4173.04 15424.6 4138.69 15472 4103.42C15851.3 3823.69 16443.9 3447 17311.3 3104.92" stroke="#FF1E1E" stroke-width="5" stroke-miterlimit="10"/>
<path d="M1131.17 9345.65C1606.94 9207.59 2005.43 9081.86 2293.79 8986.43C3143.24 8702.73 3330.29 8583.39 3720.43 8542.94C4124 8499.76 4222.41 8596.84 4628.34 8493.97C4863.12 8433.57 5101.99 8338.32 5328.35 8214.86C5758.73 7990.65 5751.66 7782.27 6131.09 7469C6591.34 7087.44 7146.91 6917.57 7246.28 6861.97C7850.44 6677.38 8288.69 6812.54 8520.64 6899.81C8567.21 6917.23 8599.22 6937.86 8625.9 6949.96C9320.84 7268.46 9011.23 7874.58 9588.42 7847.91C9963.71 7830.47 10444.2 7572.87 10704.7 7444.52C10922.6 7336.16 11132.9 7212.05 11330.3 7075.36C11525.6 6944.48 11706.6 6822.64 11990.8 6682.72C12083 6637.22 12166.4 6603.67 12238.8 6565.14C12671.8 6333.89 12826.1 6305.48 13307.2 5986.01C13511 5850.55 13672.2 5713.41 13831.4 5571.3C14234.5 5210.17 14516.7 4723.19 15275.8 4126.54C15318.9 4092.68 15364.7 4057.75 15413 4021.74C15795.3 3737.77 16395.7 3352.7 17275 3002.5" stroke="#FF1E1E" stroke-width="5" stroke-miterlimit="10"/>
<path d="M1150.74 9360.11C1615.64 9226.6 2009.63 9105.22 2299.61 9010.19C3124.15 8740.46 3317.29 8623.62 3707.28 8582.5C4102.72 8541.2 4204.6 8633.46 4600.73 8534.49C4830.25 8476.36 5064 8385.46 5287.05 8267.6C5711.12 8055.7 5713.52 7852.57 6087.33 7548.01C6538.07 7180.88 7072.57 7013.75 7182.16 6948.19C7767.31 6764.7 8200.51 6879.44 8435.66 6952.82C8482.48 6967.37 8513.87 6986.61 8540.75 6996.97C9238.68 7271.69 8955.22 7844.17 9518.64 7808.24C9897.29 7784.19 10381.1 7522.39 10651 7391.05C10925.9 7257.36 11113.7 7137.49 11289.2 7026.48C11489.8 6899.58 11672.2 6762.78 11957.6 6657.08C12042 6626.24 12125.8 6588.82 12207 6545.68C12639.8 6314.55 12780.2 6270.89 13248.1 5940.79C13443.9 5802.72 13600.9 5661.74 13761.1 5515.1C14146.3 5162 14441.4 4658.18 15213.6 4047.15C15257.2 4012.72 15303.4 3977.15 15352.2 3940.46C15737.3 3652.7 16345.6 3259.25 17237 2900.64" stroke="#FF1E1E" stroke-width="5" stroke-miterlimit="10"/>
<path d="M1170.62 9374.62C1626.63 9244.99 2014.18 9128.8 2303.47 9036.09C3104.39 8779.23 3304.93 8663.95 3693.32 8623.88C4081.71 8583.82 4187.29 8670.97 4572.07 8577.13C4907.33 8495.3 5172.53 8366.01 5246.97 8321.64C5643.76 8084.48 5676.29 7924.13 6044.74 7628.15C6485.64 7273.96 6999.72 7109.83 7118.75 7034.83C7684.65 6852.74 8112.37 6946.51 8351.63 7005.97C8398.42 7017.77 8429.18 7035.63 8456.03 7044.53C9156.96 7275.47 8900.36 7813.45 9450.16 7768.92C9832.72 7738.02 10319 7472.39 10598.8 7337.64C10878.6 7202.9 11069.4 7085.23 11249.4 6977.61C11455 6854.83 11645.6 6721.97 11925.7 6631.8C12010.3 6605.04 12095 6569.46 12176.6 6526.41C12608.8 6295.52 12735.5 6236.48 13190 5896.04C13378.2 5755.24 13530 5610.61 13689.8 5460.85C14057.5 5116.83 14365.5 4594.71 15150.6 3969.42C15194.5 3934.49 15241.2 3898.35 15290.6 3861C15678.7 3569.16 16294.9 3167.33 17198.1 2800.44" stroke="#FF1E1E" stroke-width="5" stroke-miterlimit="10"/>
<path d="M1190.35 9388.46C1636.47 9263.68 2018.45 9152.49 2308.3 9060.84C3084.68 8816.87 3292.45 8703.76 3679.18 8664.43C4058.77 8625.99 4169.64 8708.26 4543.55 8618.97C4869.92 8541.01 5128.86 8420.34 5204.52 8375.99C5594.34 8147.01 5636.44 7996.28 5999.82 7708.76C6430.84 7367.33 6923.47 7207.03 7052.89 7121.43C7599.77 6940.45 8020.91 7012.45 8264.91 7059.36C8301.41 7068.38 8336.19 7079.2 8369.1 7091.77C9072.47 7279.17 8843.53 7782.12 9378.08 7729.89C9764.8 7691.84 10253.5 7422.2 10543 7284.52C10821.5 7151.84 11021.3 7033.38 11206.1 6929.2C11416.8 6810.39 11616 6682.65 11890.2 6606.8C11975.3 6584.12 12061.6 6550.17 12144.2 6506.86C12576.1 6275.93 12688.9 6201.96 13130.2 5850.72C13311 5707.08 13457.2 5559.37 13617.5 5405.33C13967.7 5068.94 14288.7 4530.14 15086.7 3890.59C15130.9 3855.16 15178.1 3818.44 15228.2 3780.44C15618.5 3484.88 16243 3074.43 17158.4 2699.3" stroke="#FF1E1E" stroke-width="5" stroke-miterlimit="10"/>
<path d="M1210.12 9402.47C1646.17 9281.71 2022.42 9174.86 2313.44 9085.63C3065.08 8855.01 3280.05 8743.92 3666.5 8704.7C4038.16 8667.7 4153.34 8744.78 4516.06 8660C4835.2 8585.19 5086.49 8473.73 5164.5 8428.91C5547.73 8208.5 5600.41 8066.4 5957.29 7787.78C6378.45 7459.28 6851.28 7301.91 6989.65 7207.45C7517.24 7027.7 7931.62 7079.84 8180.97 7111.55C8217.32 7118.58 8251.97 7127.49 8284.75 7138.25C8991.07 7281.7 8789.71 7749.29 9309.1 7689.69C9700.01 7644.67 10190.9 7371.48 10490.1 7230.52C10771.3 7097.75 10976.6 6980.24 11165.8 6879.62C11390.9 6760.69 11623.9 6660.02 11857.8 6580.63C11957.4 6545.55 12043 6524.43 12114.3 6487.34C12545.6 6256.49 12644.6 6167.93 13072.6 5805.73C13245 5659.89 13386.8 5508 13548.1 5349.89C13881.6 5022.22 14214.4 4465.61 15026.4 3811.31C15070.8 3775.63 15118.6 3738.05 15169.6 3699.14C15563.1 3399.05 16195.8 2980.43 17122.3 2597.55" stroke="#FF1E1E" stroke-width="5" stroke-miterlimit="10"/>
<path d="M1233.19 9424.05C1659.19 9307.48 2030.19 9205.67 2321.56 9117.95C3047.51 8900.54 3269.68 8791.46 3652.91 8754.2C4016.93 8718.5 4136.17 8790.69 4488.01 8710.46C4797.15 8640 5042.97 8536.63 5123.36 8491.5C5500.69 8279.92 5561.83 8146.64 5914.2 7876.24C6325.24 7560.79 6777.69 7406.59 6925.5 7302.69C7434.62 7123.8 7839.73 7155.72 8096.03 7173.92C8132.23 7178.91 8166.83 7185.83 8199.64 7194.62C8906.69 7295.09 8735.66 7725.94 9239.35 7659.38C9635.02 7607.14 10127.6 7330.65 10436.7 7186.29C10720.2 7053.84 10931.1 6937.16 11124.8 6840.09C11345.7 6729.38 11556.9 6649.7 11825.6 6564.16C11927.3 6531.82 12013.3 6513.66 12084.1 6475.85C12514.8 6245.24 12600.3 6141.97 13015 5768.48C13179.5 5620.19 13316.3 5464.82 13478 5302.44C13795.3 4983.69 14139.8 4409.26 14963.6 3741.02C15008.4 3704.6 15056.5 3666.73 15108.1 3626.96C15504.5 3323.42 16144.2 2896.44 17083.6 2504.79" stroke="#FF1E1E" stroke-width="5" stroke-miterlimit="10"/>
<path d="M1263.58 9490.44C1679.58 9378.22 2044.86 9280.74 2337.05 9195.23C3039.77 8989.78 3269.33 8883.55 3650.7 8846.18C4006.79 8811.91 4130.41 8879.25 4471.34 8803.41C4771.59 8736.82 5010.83 8642.01 5093.87 8596.47C5465.38 8394.04 5535.19 8269.12 5882.21 8007.3C6282.93 7704.07 6715.24 7554.04 6872.68 7440.24C7362.19 7263.84 7737.9 7312.78 8022.67 7278.31C8063.22 7285.66 8098.05 7290.72 8125.52 7293.1C8834.1 7350.06 8693.46 7744.5 9180.91 7671.23C9581.53 7611.32 10075.8 7331.52 10394.6 7184.04C10680.2 7051.92 10896.9 6936.07 11095 6842.22C11321.1 6735.49 11538.8 6665.14 11802.8 6590.06C11906.7 6560.46 11993.1 6545.26 12063.5 6507.41C12494 6276.91 12566 6159.89 12966.9 5774.55C13123.8 5624.04 13255.4 5465.02 13417.7 5298.19C13719 4988.42 14074.9 4395.97 14911.6 3713.46C14956.8 3676.77 15005.4 3638.18 15057.6 3597.67C15457.2 3290.89 16105.5 2855.17 17056.2 2456.44" stroke="#FF1E1E" stroke-width="5" stroke-miterlimit="10"/>
<path d="M1292.88 9549.39C1699.71 9441.17 2059.3 9348.19 2352.23 9264.56C3030.58 9071.38 3268.68 8967.69 3647.15 8932.31C3995.27 8899.31 4123.27 8961.8 4453.05 8890.63C4744.37 8827.75 4976.88 8740.83 5063.01 8695.41C5429.04 8502.36 5507.21 8385.75 5849.98 8132.03C6241.53 7841.99 6652.48 7694.83 6819.64 7571.47C7289.66 7395.45 7657.97 7428.31 7948.72 7376.16C7981.56 7380.89 8015.85 7383.83 8051.41 7384.95C8760.75 7399.11 8650.96 7755.1 9122.2 7676.57C9528.04 7608.86 10023.4 7326 10351.9 7175.58C10640.1 7043.49 10862.4 6928.47 11064.8 6838.64C11296.1 6735.89 11520.6 6675.08 11780.8 6609.77C11886.6 6583.19 11973.6 6570.66 12043.9 6531.97C12473.5 6301.68 12532.2 6169.99 12919.5 5773.48C13067.7 5621.22 13195.4 5458.24 13357.3 5287.32C13642.8 4986.86 14009.7 4376.17 14859.3 3679.23C14904.4 3641.24 14953.9 3602.76 15006.7 3561.72C15408.8 3249.97 16064.4 2806.91 17027.7 2398.23" stroke="#FF1E1E" stroke-width="5" stroke-miterlimit="10"/>
<path d="M1323.55 9607.75C1720.11 9504 2074.29 9415.4 2367.48 9334.23C3021.34 9152.82 3265.16 9052.7 3643.39 9017.61C3983.58 8986.04 4115.97 9043.68 4434.83 8976.89C4717.82 8917.64 4940.1 8826.17 5031.98 8793.7C5403.84 8662.64 5479.02 8501.55 5815.38 8257.06C6196.36 7980.81 6587.38 7836.08 6764.2 7702.99C7215.21 7528.09 7575.4 7544.44 7873.53 7474C7906.26 7476.91 7940.42 7477.88 7975.77 7476.91C8685.57 7448.21 8607.23 7765.69 9063.33 7681.25C9474.08 7605.7 9970.95 7319.99 10309.4 7166.17C10600 7034.28 10827.8 6920.37 11034.7 6833.94C11271.2 6735.17 11502 6684.48 11758.6 6628.98C11866.6 6605.3 11953.7 6595.52 12024.2 6557.84C12453.4 6327.49 12499.1 6181.64 12872.2 5773.7C13013.9 5618.73 13135.6 5452.46 13298.6 5276.85C13567.6 4986.11 13946.5 4356.65 14808.8 3644.62C14854.5 3607.05 14904.1 3567.08 14957.5 3524.7C15362.3 3209 16025.8 2756.77 17001.1 2340.48" stroke="#FF1E1E" stroke-width="5" stroke-miterlimit="10"/>
<path d="M1353.71 9666.51C1740.42 9567.78 2088.45 9482.97 2382.7 9403.73C3012.06 9234.09 3263.07 9137.27 3639.68 9103.08C3971.9 9072.77 4108.51 9124.89 4416.57 9064.28C4690.95 9008.78 4906.61 8924.42 5000.91 8893.1C5364.84 8771.38 5450.79 8618.47 5782.07 8382.44C6152.7 8118.24 6523.86 7977.57 6710.08 7834.87C7141.83 7661.37 7495.5 7660.15 7797.71 7573.03C7830.33 7574.16 7864.36 7573.17 7899.51 7570.07C8609.24 7498.92 8564 7777.16 9001.35 7688.38C9418.32 7604.06 9915.56 7315.98 10263.4 7159.33C10556.5 7027.48 10790 6914.56 11001.4 6831.68C11243.1 6736.9 11480.4 6696.66 11733.1 6649.64C11843.1 6629.32 11930.8 6622.04 12000.9 6584.31C12429.7 6354.21 12462.9 6194.12 12822.4 5774.21C12956.6 5617.02 13073.3 5447.26 13236.4 5267.17C13491.6 4985.22 13879.7 4337.91 14755.2 3612.79C14801.2 3574.5 14851.3 3534.29 14905.5 3492.15C15313.5 3172.54 15984.5 2712.04 16972 2287.51" stroke="#FF1E1E" stroke-width="5" stroke-miterlimit="10"/>
<path d="M1383.83 9725.1C1759.51 9630.26 2102.84 9550.25 2397.92 9473.23C3003.53 9314.66 3261.03 9222.01 3635.92 9188.38C3960.5 9159.38 4101.4 9207.61 4398.36 9150.55C4663.84 9098.92 4872.9 9021.66 4969.88 8991.38C5325.8 8879.96 5422.57 8734.1 5748.54 8506.82C6109 8255.51 6459.83 8118.17 6655.72 7965.75C7068.46 7793.35 7413.17 7775.99 7722.77 7670.58C7755.34 7669.84 7789.24 7666.83 7824.08 7661.58C8532.24 7549.38 8521.07 7785.93 8941.33 7693.37C9361.59 7600.82 9862.05 7310.78 10219.8 7150.4C10515 7018.7 10754.2 6906.62 10970.7 6827.05C11217.3 6736.38 11460.7 6705.59 11710.3 6668.59C11822.3 6651.63 11910.5 6646.52 11980.4 6609.08C12408.5 6379.05 12429.6 6204.94 12773.4 5773.7C12900.6 5614.21 13012.1 5440.97 13175.4 5256.21C13415.7 4984.05 13814.2 4318.07 14702.1 3577.97C14748.3 3539.49 14799.1 3498.96 14853.8 3455.1C15263.8 3131.11 15943 2662.11 16942.5 2230.14" stroke="#FF1E1E" stroke-width="5" stroke-miterlimit="10"/>
<path d="M1413.92 9783.53C1780.43 9692.68 2117.48 9617.24 2413.33 9542.27C2993.55 9395.51 3258.86 9306.25 3632.13 9273.51C3948.78 9245.94 4094.58 9288.91 4379.67 9236.1C4636.82 9188.1 4839.27 9117.95 4938.66 9088.83C5286.65 8986.74 5393.92 8849.19 5715.09 8630.25C6065.07 8391.77 6395.64 8258.11 6600.65 8096.19C6994.06 7924.86 7330.94 7890.87 7646.8 7767.66C7679.56 7764.94 7713.42 7759.98 7747.98 7752.83C8457.42 7598.69 8478.3 7794.07 8881.23 7698.03C9309.93 7595.73 9808.14 7303.92 10176 7141.14C10473.4 7009.43 10718.3 6898.34 10938.7 6822.57C11190.6 6735.88 11440 6716.62 11686.3 6687.53C11800.4 6674.59 11888.7 6671.27 11958.6 6633.66C12386.4 6403.93 12395.4 6215.62 12724.2 5772.69C12844.2 5611.01 12951.6 5434.59 13113.8 5244.99C13339.8 4982.37 13748.1 4297.97 14648.9 3543.44C14695.5 3504.38 14746.5 3462.8 14801.9 3418.68C15215.4 3091.48 15902.4 2613.94 16913.9 2172.89" stroke="#FF1E1E" stroke-width="5" stroke-miterlimit="10"/>
<path d="M1444.12 9842.46C1800.63 9755.97 2131.91 9684.69 2428.63 9612.11C2984.47 9476.32 3257.13 9391.04 3628.53 9359.48C3937.17 9333.01 4086.84 9371.53 4361.57 9322.86C4540.94 9288.89 4723.67 9243.63 4907.75 9187.61C5247.78 9094.69 5365.53 8965.44 5681.67 8755.13C6021.18 8529.49 6332.96 8397.94 6546.96 8227.33C6921.16 8057.56 7250.4 8006.49 7572.56 7865.63C7605.4 7860.93 7639.11 7853.94 7673.26 7844.76C8380.05 7650.22 8436.2 7802.48 8821.28 7703.36C9256.29 7591.33 9755.76 7302.28 10132.1 7132.5C10431.2 6997.65 10682.4 6891.02 10907.5 6818.52C11163.7 6736.18 11419.9 6727.58 11662.9 6706.89C11778.7 6696.92 11867.9 6696.33 11937.5 6658.84C12364.8 6429.18 12362.1 6226.77 12675.7 5772.1C12788.5 5608.41 12890.5 5428.29 13053.1 5234.08C13264.6 4981.29 13682.6 4278.29 14596.3 3509.34C14643.2 3470.49 14694.5 3427.76 14750.5 3382.97C15167 3051.36 15861.8 2565.6 16885.2 2116.44" stroke="#FF1E1E" stroke-width="5" stroke-miterlimit="10"/>
<path d="M1474.28 9901.22C1822.17 9818.48 2146.54 9751.69 2443.76 9681.27C2975.16 9556.13 3254.93 9475.12 3624.98 9444.33C3925.1 9419.36 4079.46 9453.08 4343 9408.92C4518.29 9377.9 4696.78 9337.05 4876.92 9286.72C5209.45 9202.4 5337.19 9081.86 5648.37 8880.51C5977.32 8667.38 6268.17 8540.53 6492.84 8359.21C6847.98 8190.38 7169.38 8122.68 7497.54 7964.13C7530.52 7957.35 7564.07 7948.4 7597.79 7937.39C8303.79 7702.56 8394.45 7811.1 8761.49 7709.36C9202.97 7586.97 9702.24 7297.08 10088.6 7124.41C10390.2 6989.76 10646.8 6884.07 10876.4 6815.14C11138.4 6736.53 11399.4 6739.44 11640 6726.8C11757 6720.72 11847.2 6722.05 11916.6 6684.68C12343.5 6454.98 12329.4 6238.46 12627.1 5772.3C12733.3 5606.18 12830.5 5422.8 12992.4 5224.13C13190.5 4980.84 13617.7 4259.33 14544.4 3475.66C14591.5 3435.86 14643.6 3392.93 14700.3 3347.27C15119.8 3011.76 15823.1 2517.38 16857.7 2060.17" stroke="#FF1E1E" stroke-width="5" stroke-miterlimit="10"/>
<path d="M1504.16 9960.1C1840.9 9882.04 2161.17 9818.68 2459.09 9751.28C2965.24 9637.31 3253.23 9560.07 3621.37 9530.3C3914.12 9506.51 4072.43 9536.13 4324.94 9495.85C4495.96 9467.03 4669.85 9429.87 4845.49 9384.62C5170.78 9308.61 5308.56 9197.11 5613.88 9004.75C5932.63 8804.34 6203.22 8681.16 6437.52 8489.94C6773.41 8322.52 7086.94 8238.01 7421.6 8061.38C7454.71 8052.58 7488.12 8041.66 7521.41 8028.76C8226.7 7753.97 8350.77 7817.98 8700.47 7714.05C9148.38 7581.13 9647.5 7290.58 10044 7115.34C10347.7 6980.85 10610 6875.99 10844.2 6810.61C11111.4 6735.99 11377.7 6750.17 11615.6 6745.69C11734.1 6743.54 11825 6746.42 11894.5 6709.39C12320.9 6479.92 12296 6248.78 12577.6 5771.24C12676.8 5602.99 12770.5 5416.02 12930.5 5213.03C13116 4979.06 13551.4 4240.19 14491.1 3441.13C14538.4 3400.88 14591 3357.37 14648.4 3311.01C15070.8 2971.71 15781.3 2469.02 16828.7 2003.84" stroke="#FF1E1E" stroke-width="5" stroke-miterlimit="10"/>
<path d="M1534.32 10018.9C1861.1 9945.32 2176.33 9885.27 2474.39 9821.11C2957.4 9716.86 3251.22 9644.98 3617.7 9615.93C3902.76 9593.29 4065.12 9618.01 4306.53 9582.57C4473.5 9556.55 4643.11 9523.39 4814.54 9483.24C5132.58 9415.53 5279.83 9313.15 5581.26 9129.11C5889.45 8941.2 6140.1 8821.74 6384.12 8620.96C6700.99 8454.64 7006.64 8353.34 7347.65 8159.23C7380.86 8147.64 7414.03 8134.73 7446.97 8120.57C8157.04 7832.11 8309.55 7824.9 8641.44 7719.35C9095.55 7574.91 9594.24 7281.23 10001 7106.67C10307 6975.41 10575.2 6868.35 10813.9 6806.53C11086.3 6735.89 11357.5 6761.75 11593.2 6765.02C11713.2 6766.8 11805.2 6771.61 11874.3 6734.54C12300.4 6505.19 12264.9 6259.75 12529.9 5771.07C12622.4 5600.4 12711.4 5410.33 12870.7 5202.09C13042.1 4978.16 13487.3 4219.57 14438.6 3407.36C14486.4 3366.43 14539.3 3322.49 14597.4 3275.52C15022.4 2931.92 15741 2420.9 16800.3 1947.1" stroke="#FF1E1E" stroke-width="5" stroke-miterlimit="10"/>
<path d="M1564.44 10077.5C1881.18 10008.1 2190.84 9951.76 2489.56 9890.44C2948.57 9796.09 3249.05 9729.22 3613.94 9701.23C3891.04 9679.85 4057.55 9700.01 4288.31 9668.84C4501.92 9640.17 4670.81 9603.39 4783.59 9581.86C5094.58 9521.99 5251.32 9428.91 5547.84 9253.99C5815.92 9095.15 6077.13 8927.53 6329.83 8752.17C6607.77 8563.09 6898.56 8368.78 7272.5 8257.23C7306.11 8245.63 7339.5 8230.6 7371.38 8212.7C8076.67 7858.84 8267.1 7831.81 8581.53 7724.84C9041.96 7568.09 9540.61 7275.54 9957.37 7098.08C10266.7 6966.32 10539.5 6860.91 10782.6 6802.48C11060.2 6736.78 11336.4 6773.53 11569.9 6784.54C11691.2 6790.39 11784.4 6796.84 11853.5 6759.59C12278.8 6530.44 12233.1 6270.3 12480.6 5770.85C12566.4 5597.76 12651.6 5404.55 12809 5191.83C12966.4 4979.11 13422.4 4200.95 14385.2 3373.45C14433.2 3332.5 14487.5 3287.31 14545.3 3239.88C14973.4 2892.38 15699.7 2373.09 16771.3 1890.76" stroke="#FF1E1E" stroke-width="5" stroke-miterlimit="10"/>
<path d="M1594.59 10136.2C1901.33 10071.2 2205.44 10017.3 2505.17 9960.33C2939.88 9876 3247.35 9814.18 3610.34 9787.2C3880.85 9766.48 4050.39 9782.56 4269.97 9755.89C4475 9731.14 4639.07 9699.96 4752.64 9680.47C5056.85 9628.34 5222.5 9544.62 5514.38 9378.71C5801.13 9215.76 5986.49 9086.49 6275.58 8883.55C6535.98 8700.63 6825.99 8560.91 7197.63 8355.12C7231.78 8336.2 7265.48 8321.89 7296.1 8304.88C8001.98 7911.41 8224.57 7838.38 8521.62 7730.34C8987.89 7560.56 9487.28 7269.89 9913.49 7089.61C10225.2 6957.89 10503.9 6853.47 10751.4 6798.26C11033.9 6735.88 11314.8 6784.92 11546.5 6803.74C11669 6813.64 11764.7 6821.25 11832.4 6784.6C12257.1 6555.7 12201.5 6280.56 12432.5 5769.35C12511.9 5593.72 12593.7 5397.59 12748.7 5180.01C12894.8 4975.17 13357.9 4180.12 14333.2 3338.32C14381.7 3296.79 14435.5 3251.51 14494.8 3202.85C14925.7 2851.56 15660.1 2323.77 16743.3 1833.28" stroke="#FF1E1E" stroke-width="5" stroke-miterlimit="10"/>
<path d="M1626.1 10194.2C1922.84 10133.6 2221.98 10083.3 2521.65 10028.7C2932.6 9954.01 3246.38 9896.98 3607.89 9871.57C3869.33 9852.59 4044.4 9863.51 4253.1 9841.39C4449.2 9820.34 4607.31 9795.07 4722.92 9777.82C5020.64 9733.29 5195.19 9658.93 5482.47 9502.19C5758.31 9351.54 5926.53 9228.82 6222.73 9014.32C6466.43 8837.21 6746.97 8681.75 7123.91 8452.68C7157.44 8432.38 7191.39 8415.21 7222.21 8396.45C7929.29 7963.29 8191.35 7874.54 8463.1 7735.23C8926.34 7499.29 9396.76 7280.66 9871.35 7080.74C10185.5 6948.89 10469.6 6845.58 10722.5 6793.91C11010.3 6735.51 11295.5 6796.48 11524.7 6823.16C11648.2 6837.24 11744.3 6846.68 11812.8 6809.84C12237.2 6580.89 12171.5 6291.05 12385.7 5769.67C12458.8 5591.65 12537.7 5392.37 12689.8 5170C12823.5 4974.81 13294.2 4161.18 14282.4 3305.11C14331.1 3263.13 14384.5 3217.64 14445.4 3167.92C14879.3 2812.38 15621.2 2276.34 16716.6 1777.77" stroke="#FF1E1E" stroke-width="5" stroke-miterlimit="10"/>
<path d="M1650.61 10235.2C1937.35 10178.9 2231.32 10131.4 2532.37 10080.1C2919.74 10014.6 3239.63 9964.09 3600.75 9938.3C3854.34 9919.8 4033.75 9926.99 4231.5 9909.08C4418.75 9892.08 4571.16 9872.59 4688.15 9857.32C4980.17 9819.87 5162.79 9755.24 5445.47 9607.67C5710.67 9469.19 5862.78 9353.49 6164.75 9125.62C6392.26 8953.91 6664.6 8782.9 7045.35 8530.66C7078.49 8508.69 7111.89 8489.18 7143.16 8468.39C7852.06 7995.64 8143.58 7853.23 8399.49 7720.82C8867.2 7478.38 9343.26 7254.89 9824.02 7052.08C10140.4 6920.38 10430.2 6818.07 10686.5 6770.43C10979.8 6716.24 11268.9 6788.74 11497.5 6821.79C11621.6 6840.15 11718.5 6851.65 11787.9 6814.28C12211.7 6585.4 12136.6 6280.49 12333.1 5748.29C12399.7 5567.57 12476.6 5365.09 12624.9 5138.31C12746.7 4952.35 13224.7 4120.43 14225.9 3249.94C14274.7 3207.5 14329.7 3160.95 14390.3 3111.02C14826.9 2751.52 15577 2206.97 16684.2 1700.13" stroke="#FF1E1E" stroke-width="5" stroke-miterlimit="10"/>
<path d="M1670.63 10254.3C1947.37 10202.3 2236.62 10156.9 2536.33 10110.4C2900.14 10054 3227.29 10008.4 3584.63 9984.85C3830.65 9967.99 4013.85 9970.41 4200.65 9956.72C4379.32 9943.63 4525.96 9929.6 4644.84 9917.18C4931.16 9886.82 5121.81 9831.74 5399.65 9693.64C5654.18 9567.16 5791.55 9459.16 6098.11 9218.08C6309.87 9052.31 6574.73 8864.88 6957.84 8589.91C6990.91 8566.32 7024.05 8544.35 7055.21 8521.77C7766.97 8008.61 8085.61 7813.02 8327.19 7687.4C8797.55 7443.02 9312.03 7193.59 9767.78 7004.86C10086.5 6872.86 10381.8 6771.83 10642.9 6727.63C10941.1 6677.21 11234.2 6761.92 11462 6803.23C11587.1 6825.94 11686.4 6838.26 11754.6 6801.38C12178.1 6572.79 12093.4 6252.59 12272.4 5709.79C12332.7 5526.52 12408.2 5320.78 12551.8 5089.6C12662 4912.93 13147.1 4062.84 14161.1 3177.92C14210.5 3135.08 14265.6 3087.9 14327 3037.1C14766.6 2673.7 15524.3 2120.89 16643.5 1605.31" stroke="#FF1E1E" stroke-width="5" stroke-miterlimit="10"/>
<path d="M1691.77 10271.5C1958.74 10223.7 2243.55 10180.2 2542.85 10138.5C2892.34 10088 3235.94 10051.4 3572.21 10028.9C3810.58 10013.3 3996.57 10011.9 4173.77 10001.7C4343.39 9993.12 4484.5 9984.25 4605.14 9974.19C4886.09 9950.95 5084.45 9905.38 5357.49 9776.91C5601.59 9662.15 5725.29 9562.49 6035.12 9307.85C6231.93 9146.2 6489.86 8943.4 6874.27 8646.35C6906.95 8621.09 6939.83 8596.66 6971.2 8572.33C7685.53 8018.88 8026.73 7762.35 8258.54 7651.29C8742.9 7419.75 9249.61 7146.12 9715.48 6954.82C10036.6 6822.52 10337.5 6723.11 10603 6682.3C10906.4 6635.86 11203.5 6733.4 11430.1 6781.82C11555.7 6808.94 11656.7 6822.66 11725 6785.95C12147.9 6557.26 12053 6222.19 12215.1 5668.55C12270.2 5463.62 12359.9 5251.78 12482.3 5037.7C12581 4869.86 13073 4001.89 14099.6 3102.66C14149.2 3059.36 14204.8 3011.61 14266.9 2960.12C14709.3 2592.75 15475 2031.44 16606.3 1508.08" stroke="#FF1E1E" stroke-width="5" stroke-miterlimit="10"/>
<path d="M1712.13 10288C2342.72 10181.4 2959.91 10109.3 3558.73 10072.3C4522.06 10012.9 4805.62 10084 5314.23 9859.37C5684.63 9695.67 5750.12 9562.71 6789.32 8702.1C7570.9 8054.83 7961.82 7731.78 8188.82 7614.53C9004.89 7194.96 9894.99 6727.88 10562 6636.17C11042.9 6570 11503.7 6871.1 11694 6768.37C12258 6463.53 11886 5940.06 12411.9 4984.71C12499.4 4825.58 12998.1 3940.01 14037.5 3026.35C14441 2671.72 15264 2015.79 16568.4 1409.3" stroke="#FF1E1E" stroke-width="5" stroke-miterlimit="10"/>
</svg>
