<svg viewBox="0 0 211.541 80.208" xml:space="preserve" xmlns="http://www.w3.org/2000/svg"><path d="M144.034 0a12.7 12.7 0 0 0-12.7 12.7v54.807a12.7 12.7 0 0 0 12.7 12.7h54.807a12.7 12.7 0 0 0 12.7-12.7V12.701a12.7 12.7 0 0 0-12.7-12.7zm31.526 10.76a1.566 1.566 0 0 1 1.584 1.83l-3.645 21.27a.294.294 0 0 0 .292.344l13.572-.074a1.862 1.862 0 0 1 1.543 2.92l-21.912 31.79a1.67 1.67 0 0 1-3.022-1.23l3.713-21.65a.262.262 0 0 0-.258-.306h-13.232a1.58 1.58 0 0 1-1.31-2.464l21.417-31.74a1.57 1.57 0 0 1 1.258-.69"/><path d="M94.71 125.948c-3.061 0-5.648-.6-7.673-1.639-2.296-1.233-2.901-1.87-4.098-3.513-1.185-1.628-1.706-3.508-1.706-5.636q0-3.581 1.79-6.306 1.868-2.725 5.606-4.204c2.491-1.038 5.897-1.563 9.633-2.152l8.289-1.308a.64.64 0 0 0 .522-.612c-.005-1.432-.05-1.66-.408-2.617-.519-1.246-1.09-1.797-2.232-2.42-1.09-.623-2.291-1.051-4.164-1.12-1.983-.074-3.243.094-5.256 1.587-1.053.935-1.461 1.97-1.799 3.585a.55.55 0 0 1-.625.433l-9.41-1.555a.53.53 0 0 1-.435-.61c.443-2.52 1.173-4.227 3.152-6.554 1.927-2.024 2.745-2.435 5.34-3.577 2.969-1.278 5.671-1.454 8.993-1.454 3.737 0 7.078.357 9.777 1.603 2.699 1.193 4.675 2.448 6.098 5.062 1.514 2.336 1.923 5.689 1.923 9.063 0 0 .119 7.346.053 11.816-.06 4.128.26 8.926.796 11.206.067.285-.1.512-.393.512h-9.963a.59.59 41.958 0 1-.586-.527l-.458-4.295-.307-.019c-.473.838-.694 1.075-1.61 1.977-.934.882-1.344 1.193-2.486 1.764s-2.318.986-3.615 1.246c-1.822.23-3.346.264-4.747.264m3.34-7.284q2.178 0 3.736-.701a9.2 9.2 0 0 0 2.803-2.024c.779-.83 1.491-1.792 1.79-2.88.334-1.213.271-2.262.24-3.464l-.1-1.245a.245.245 38.104 0 0-.283-.221l-6.017.97c-1.576.301-3.655.707-4.973 1.078q-1.478.546-2.18 1.635-.7 1.013-.7 2.414t.7 2.413 2.025 1.558q1.323.466 2.958.467" style="-inkscape-font-specification:&quot;DM Sans, Bold&quot;" transform="matrix(.96498 0 0 1.03629 -38.556 -69.344)" aria-label="a" font-weight="700" font-size="77.855" font-family="DM Sans"/><path d="M153.086 95.245q4.41 5.063 4.531 14.415c.004.292.004.766 0 1.058q-.112 9.901-4.474 15.327c-.183.228-.491.587-.687.804q-4.531 5.006-11.458 5.19c-.292.007-.766.006-1.058.002-2.65-.037-4.06-.375-6.18-1.243a7 7 0 0 1-.935-.488c-1.007-.638-1.894-1.21-2.891-2.324-.195-.217-.345-.164-.345.128v16.974a.536.536 134.659 0 1-.529.535l-9.955.119a.52.52 44.718 0 1-.528-.523l.112-54.093a.53.53 135.059 0 1 .53-.53h9.44a.53.53 45 0 1 .53.53v4.198c0 .293.127.33.291.088.86-1.27 1.523-1.97 2.464-2.747.225-.186.6-.477.838-.646q3.186-2.25 7.417-2.382c.292-.01.766-.01 1.058 0q6.472.18 11.106 4.835c.206.207.53.552.723.773m-6.363 14.933q-.108-4.051-1.879-7.272a10 10 0 0 0-.57-.89c-1.46-1.981-3.162-3.302-5.84-3.454a14 14 0 0 0-1.058-.005c-3.361.128-5.593 1.514-7.078 4.746-.122.266-.3.705-.394.982-.61 1.808-.891 4.28-.926 6.82-.004.292-.004.766 0 1.058.047 3.997.645 5.812 1.945 7.658.168.239.453.618.644.84 1.42 1.652 3.155 2.304 5.596 2.496.29.023.764.049 1.057.046 2.482-.02 4.449-1.117 5.868-2.99.177-.232.443-.624.596-.873q1.942-3.159 2.04-8.103c.006-.293.006-.766-.002-1.059z" style="-inkscape-font-specification:&quot;Helvetica, Bold&quot;" transform="matrix(1.00955 0 0 .99054 -38.556 -69.344)" aria-label="p" font-weight="700" font-size="75.868" font-family="Helvetica"/><path d="M82.679 77.436v8.587a.53.53 135 0 1-.53.529H66.913a.53.53 135 0 0-.53.529v42.48a.53.53 135 0 1-.529.53H55.456a.53.53 45 0 1-.53-.53v-42.48a.53.53 45 0 0-.528-.53H39.085a.53.53 45 0 1-.529-.528v-8.587a.53.53 135 0 1 .53-.53H82.15a.53.53 45 0 1 .529.53" style="-inkscape-font-specification:&quot;Helvetica, Bold&quot;" aria-label="T" transform="translate(-38.556 -69.344)" font-weight="700" font-size="75.681" font-family="Helvetica"/></svg>